<svg width="1400" height="900" viewBox="0 0 1400 900" fill="none" xmlns="http://www.w3.org/2000/svg">
  <defs>
    <linearGradient id="panel" x1="196" y1="142" x2="1212" y2="764" gradientUnits="userSpaceOnUse">
      <stop stop-color="#FFFFFF"/>
      <stop offset="1" stop-color="#F5F9FF"/>
    </linearGradient>
    <linearGradient id="join" x1="500" y1="320" x2="903" y2="320" gradientUnits="userSpaceOnUse">
      <stop stop-color="#9F2436"/>
      <stop offset="1" stop-color="#2367B1"/>
    </linearGradient>
    <filter id="shadow" x="108" y="88" width="1184" height="726" filterUnits="userSpaceOnUse" color-interpolation-filters="sRGB">
      <feDropShadow dx="0" dy="22" stdDeviation="24" flood-color="#19365A" flood-opacity="0.12"/>
    </filter>
  </defs>
  <rect width="1400" height="900" rx="48" fill="#F6FAFF"/>
  <circle cx="196" cy="154" r="122" fill="#9F2436" fill-opacity="0.05"/>
  <circle cx="1212" cy="112" r="128" fill="#2367B1" fill-opacity="0.07"/>
  <g filter="url(#shadow)">
    <rect x="148" y="126" width="1104" height="638" rx="38" fill="url(#panel)"/>
  </g>
  <text x="188" y="202" fill="#102033" font-family="Space Grotesk, Arial, sans-serif" font-size="52" font-weight="700">A Simple Couple Journey</text>
  <text x="188" y="244" fill="#607188" font-family="Space Grotesk, Arial, sans-serif" font-size="24">Two people enter with intent, match, move forward, and reach a clear conclusion together.</text>
  <g>
    <rect x="212" y="314" width="288" height="320" rx="34" fill="#FFF7F8"/>
    <circle cx="356" cy="404" r="62" fill="#9F2436"/>
    <text x="328" y="415" fill="white" font-family="Space Grotesk, Arial, sans-serif" font-size="34" font-weight="700">A</text>
    <text x="296" y="500" fill="#102033" font-family="Space Grotesk, Arial, sans-serif" font-size="34" font-weight="700">Ava</text>
    <text x="274" y="540" fill="#607188" font-family="Space Grotesk, Arial, sans-serif" font-size="22">Long-term pool</text>
    <rect x="270" y="568" width="172" height="42" rx="21" fill="#9F2436" fill-opacity="0.1"/>
    <text x="314" y="595" fill="#9F2436" font-family="Space Grotesk, Arial, sans-serif" font-size="20" font-weight="700">8/10 Interest</text>
  </g>
  <g>
    <rect x="900" y="314" width="288" height="320" rx="34" fill="#F4F9FF"/>
    <circle cx="1044" cy="404" r="62" fill="#2367B1"/>
    <text x="1016" y="415" fill="white" font-family="Space Grotesk, Arial, sans-serif" font-size="34" font-weight="700">N</text>
    <text x="968" y="500" fill="#102033" font-family="Space Grotesk, Arial, sans-serif" font-size="34" font-weight="700">Noah</text>
    <text x="960" y="540" fill="#607188" font-family="Space Grotesk, Arial, sans-serif" font-size="22">Long-term pool</text>
    <rect x="958" y="568" width="172" height="42" rx="21" fill="#2367B1" fill-opacity="0.12"/>
    <text x="1002" y="595" fill="#2367B1" font-family="Space Grotesk, Arial, sans-serif" font-size="20" font-weight="700">9/10 Interest</text>
  </g>
  <path d="M500 402C598 286 800 286 900 402" stroke="url(#join)" stroke-width="14" stroke-linecap="round"/>
  <circle cx="700" cy="318" r="54" fill="white" stroke="url(#join)" stroke-width="12"/>
  <path d="M688 320L700 332L722 306" stroke="#102033" stroke-width="10" stroke-linecap="round" stroke-linejoin="round"/>
  <g>
    <rect x="486" y="668" width="436" height="56" rx="28" fill="white"/>
    <circle cx="540" cy="696" r="16" fill="#9F2436"/>
    <circle cx="648" cy="696" r="16" fill="#C15A6D"/>
    <circle cx="756" cy="696" r="16" fill="#7F4C8F"/>
    <circle cx="864" cy="696" r="16" fill="#2367B1"/>
    <text x="517" y="748" fill="#607188" font-family="Space Grotesk, Arial, sans-serif" font-size="22">Match</text>
    <text x="616" y="748" fill="#607188" font-family="Space Grotesk, Arial, sans-serif" font-size="22">Intro</text>
    <text x="734" y="748" fill="#607188" font-family="Space Grotesk, Arial, sans-serif" font-size="22">Date</text>
    <text x="830" y="748" fill="#607188" font-family="Space Grotesk, Arial, sans-serif" font-size="22">Decision</text>
  </g>
</svg>
