<svg width="1120" height="180" viewBox="0 0 1120 180" fill="none" xmlns="http://www.w3.org/2000/svg" role="img" aria-labelledby="title desc">
  <title id="title">ATTRACT Shun logo</title>
  <desc id="desc">ATTRACT in red and Shun in blue with a horizontal split magnet between them, pulling the words together.</desc>
  <rect width="1120" height="180" rx="28" fill="transparent"/>

  <text x="22" y="116" font-family="Space Grotesk, Arial, sans-serif" font-size="76" font-weight="700" letter-spacing="1.4" fill="#9F2436">ATTRACT</text>

  <g transform="translate(486 28)">
    <path d="M36 28C95 28 127 55 127 90C127 125 95 152 36 152" stroke="#9F2436" stroke-width="20" stroke-linecap="round"/>
    <path d="M166 28C107 28 75 55 75 90C75 125 107 152 166 152" stroke="#2367B1" stroke-width="20" stroke-linecap="round"/>

    <rect x="0" y="14" width="34" height="42" rx="12" fill="#9F2436"/>
    <rect x="0" y="124" width="34" height="42" rx="12" fill="#9F2436"/>
    <rect x="168" y="14" width="34" height="42" rx="12" fill="#2367B1"/>
    <rect x="168" y="124" width="34" height="42" rx="12" fill="#2367B1"/>

    <rect x="82" y="81" width="38" height="18" rx="9" fill="#D8B66F"/>
  </g>

  <path d="M414 89H454" stroke="#9F2436" stroke-width="8" stroke-linecap="round" opacity="0.72"/>
  <path d="M430 74L454 89L430 104" fill="#9F2436" opacity="0.92"/>
  <path d="M712 89H672" stroke="#2367B1" stroke-width="8" stroke-linecap="round" opacity="0.72"/>
  <path d="M696 74L672 89L696 104" fill="#2367B1" opacity="0.92"/>

  <text x="742" y="116" font-family="Space Grotesk, Arial, sans-serif" font-size="76" font-weight="700" letter-spacing="0.6" fill="#2367B1">Shun</text>
</svg>
